<?xml version="1.0" standalone="no"?>
<!DOCTYPE svg PUBLIC "-//W3C//DTD SVG 20010904//EN"
 "http://www.w3.org/TR/2001/REC-SVG-20010904/DTD/svg10.dtd">
<svg version="1.0" xmlns="http://www.w3.org/2000/svg"
 width="3331.000000pt" height="3331.000000pt" viewBox="0 0 3331.000000 3331.000000"
 preserveAspectRatio="xMidYMid meet">
<metadata>
Created by potrace 1.11, written by Peter Selinger 2001-2013
</metadata>
<g transform="translate(0.000000,3331.000000) scale(0.100000,-0.100000)"
fill="#000000" stroke="none">
<path d="M25238 30335 c-2 -1 -32 -5 -68 -9 -73 -7 -102 -11 -145 -21 -16 -3
-39 -8 -50 -10 -61 -10 -242 -61 -295 -82 -8 -4 -17 -7 -20 -7 -21 -4 -167
-61 -174 -67 -6 -5 -15 -9 -22 -9 -23 0 -355 -159 -489 -234 -44 -25 -87 -49
-95 -52 -8 -4 -48 -27 -88 -51 -41 -24 -76 -43 -78 -43 -3 0 -10 -5 -17 -10
-17 -15 -137 -90 -143 -90 -3 0 -10 -5 -17 -10 -7 -6 -41 -29 -77 -52 -36 -23
-68 -46 -72 -52 -4 -6 -8 -7 -8 -3 0 4 -24 -10 -52 -31 -29 -20 -66 -46 -83
-57 -16 -10 -34 -22 -40 -27 -5 -4 -64 -47 -130 -94 -66 -47 -131 -93 -145
-104 -221 -165 -380 -285 -441 -334 -42 -34 -94 -74 -115 -91 -49 -39 -166
-135 -228 -188 -27 -23 -58 -50 -70 -60 -12 -9 -41 -34 -65 -55 -24 -20 -52
-44 -61 -52 -10 -8 -39 -33 -65 -55 -25 -21 -56 -48 -69 -60 -12 -11 -46 -40
-75 -65 -54 -46 -72 -62 -152 -134 -25 -22 -61 -54 -80 -71 -56 -48 -232 -207
-265 -240 -18 -16 -49 -45 -70 -64 -41 -35 -260 -241 -398 -373 -44 -43 -84
-78 -89 -78 -5 0 -14 6 -21 13 -12 12 -107 95 -155 136 -12 11 -55 49 -95 84
-145 130 -282 252 -310 277 -15 14 -45 41 -66 60 -20 19 -65 60 -99 90 -35 30
-77 69 -95 85 -18 17 -77 71 -132 120 -54 50 -127 117 -163 150 -35 33 -77 71
-92 85 -15 14 -43 40 -62 57 l-35 33 -33 -39 c-19 -21 -74 -82 -124 -136 -49
-54 -101 -110 -114 -124 -13 -14 -53 -59 -90 -100 -36 -41 -75 -84 -86 -96
-11 -11 -62 -68 -114 -125 -52 -58 -104 -114 -115 -126 -12 -11 -50 -54 -86
-94 -36 -40 -82 -91 -102 -112 -21 -22 -38 -41 -38 -43 0 -2 -17 -21 -37 -42
-38 -39 -192 -207 -226 -247 -10 -11 -55 -61 -100 -110 -148 -161 -263 -288
-290 -319 -10 -12 -37 -42 -60 -67 -23 -25 -85 -92 -137 -150 -52 -58 -116
-127 -141 -155 -26 -27 -67 -72 -90 -99 -24 -27 -55 -61 -69 -77 -60 -66 -197
-215 -224 -243 -15 -17 -54 -60 -85 -95 -31 -35 -75 -84 -98 -108 -24 -24 -43
-46 -43 -49 0 -2 -13 -16 -28 -31 -26 -26 -175 -189 -247 -271 -17 -19 -43
-48 -60 -66 -16 -17 -64 -69 -105 -115 -41 -45 -88 -97 -105 -115 -16 -18 -50
-54 -74 -82 -24 -27 -83 -92 -131 -144 -48 -52 -138 -151 -200 -220 -63 -69
-125 -138 -139 -153 -14 -16 -37 -41 -51 -56 -14 -15 -65 -71 -114 -125 -49
-53 -97 -105 -106 -116 -36 -42 -158 -175 -197 -217 -24 -24 -43 -46 -43 -48
0 -2 -17 -21 -37 -42 -32 -32 -146 -157 -228 -249 -11 -12 -47 -52 -80 -89
-33 -37 -76 -84 -95 -104 -30 -33 -94 -103 -240 -264 -19 -21 -54 -59 -77 -83
-24 -25 -43 -47 -43 -49 0 -2 -17 -21 -37 -42 -38 -39 -155 -167 -249 -273
-27 -30 -72 -78 -100 -107 l-51 -53 -69 -1 c-38 -1 -109 -3 -159 -5 -105 -5
-276 -11 -495 -19 -85 -3 -191 -7 -235 -9 -44 -3 -161 -8 -260 -11 -99 -3
-223 -8 -275 -10 -52 -2 -167 -7 -255 -10 -341 -12 -394 -14 -515 -20 -217 -9
-442 -17 -542 -18 -54 -1 -98 -4 -98 -7 0 -3 -51 -6 -113 -6 -103 -1 -265 -7
-567 -19 -63 -3 -171 -7 -240 -9 -69 -3 -183 -7 -255 -10 -205 -9 -377 -16
-545 -21 -85 -3 -163 -7 -173 -9 -15 -2 -249 -165 -337 -235 -14 -11 -65 -49
-115 -85 -49 -36 -97 -71 -107 -78 -9 -7 -51 -38 -93 -68 -42 -30 -98 -72
-125 -92 -26 -21 -51 -38 -54 -38 -4 0 -17 -9 -29 -21 -20 -18 -129 -100 -187
-139 -12 -8 -30 -22 -40 -30 -10 -8 -44 -33 -75 -55 -31 -22 -65 -47 -75 -56
-10 -8 -31 -24 -46 -35 -30 -21 -111 -81 -262 -191 -80 -59 -109 -87 -148
-145 -26 -40 -51 -75 -54 -78 -3 -3 -21 -30 -40 -60 -19 -30 -37 -57 -40 -60
-4 -3 -51 -72 -106 -155 -54 -82 -102 -152 -105 -155 -3 -3 -20 -26 -37 -52
l-32 -47 47 -59 c27 -33 59 -74 73 -92 14 -18 30 -38 35 -44 9 -9 188 -229
235 -289 8 -11 20 -24 25 -31 6 -6 60 -72 119 -146 60 -74 112 -137 115 -140
4 -3 20 -23 37 -45 16 -22 37 -49 48 -60 10 -11 30 -36 44 -55 15 -19 29 -37
32 -40 4 -3 33 -39 65 -80 33 -41 62 -77 66 -80 3 -3 52 -63 109 -135 57 -71
112 -139 122 -150 15 -18 120 -146 197 -243 14 -18 31 -39 36 -45 13 -16 136
-167 152 -187 7 -8 45 -55 85 -105 40 -49 77 -96 83 -103 5 -7 19 -23 30 -35
11 -12 63 -76 116 -142 123 -154 320 -397 333 -412 6 -6 21 -24 33 -40 12 -15
31 -39 43 -53 12 -14 31 -38 43 -53 12 -16 27 -34 32 -40 6 -7 28 -34 50 -62
22 -27 42 -52 46 -55 3 -3 32 -39 64 -80 33 -41 62 -77 65 -80 5 -5 114 -141
135 -168 6 -7 17 -21 25 -30 13 -15 42 -50 110 -136 8 -10 22 -26 30 -35 9 -9
29 -35 45 -56 17 -22 36 -46 43 -53 7 -8 25 -30 40 -50 15 -21 33 -43 39 -50
16 -16 8 -33 -39 -83 -18 -20 -49 -56 -68 -80 -45 -57 -49 -63 -85 -104 -16
-19 -35 -40 -40 -47 -28 -36 -151 -185 -165 -200 -8 -9 -26 -31 -40 -49 -14
-19 -37 -47 -52 -63 -16 -16 -28 -32 -28 -35 0 -3 -15 -22 -33 -42 -17 -19
-48 -55 -67 -79 -19 -24 -71 -87 -115 -139 -79 -94 -165 -199 -258 -314 l-47
-58 19 -27 c17 -24 100 -121 242 -282 50 -56 58 -66 137 -160 26 -30 64 -73
85 -96 l38 -42 -87 -139 c-48 -76 -105 -164 -126 -196 -23 -34 -36 -62 -32
-70 8 -12 61 -64 609 -601 l269 -264 -59 -68 c-33 -38 -62 -71 -65 -74 -3 -3
-32 -36 -65 -75 -33 -38 -67 -76 -75 -85 -21 -23 -66 -75 -130 -150 -30 -35
-62 -71 -70 -80 -13 -14 -59 -68 -125 -148 -11 -13 -29 -34 -40 -47 -12 -13
-32 -38 -45 -55 -13 -17 -33 -42 -45 -55 -11 -12 -27 -31 -35 -41 -30 -38
-104 -129 -117 -144 -15 -16 -40 -47 -84 -100 -45 -56 -317 -387 -389 -475
-36 -44 -74 -91 -85 -103 -94 -111 -240 -295 -239 -301 1 -3 5 -32 8 -65 5
-60 23 -98 54 -115 9 -5 51 -16 92 -25 74 -15 75 -15 99 7 13 12 74 70 135
129 61 58 143 137 182 175 61 58 284 271 479 458 28 28 136 131 240 230 176
168 310 302 669 669 l146 148 47 -38 c26 -22 99 -83 163 -138 63 -54 140 -119
169 -145 30 -25 73 -62 96 -81 23 -19 63 -53 89 -75 27 -22 58 -48 70 -58 11
-10 43 -37 70 -60 28 -23 60 -51 72 -62 12 -11 40 -34 61 -52 21 -17 53 -45
71 -62 18 -17 37 -31 41 -31 4 0 20 13 36 30 16 16 47 42 69 57 23 15 43 31
46 34 3 4 39 31 80 61 41 29 89 64 107 77 l32 24 46 -34 c25 -19 61 -45 79
-59 19 -14 44 -32 56 -40 36 -25 214 -154 242 -175 14 -11 36 -27 48 -35 12
-8 28 -21 36 -27 7 -7 17 -13 22 -13 6 0 12 -4 14 -8 2 -4 27 -22 56 -40 l52
-32 38 34 c20 19 139 135 264 257 921 910 868 860 891 847 12 -6 24 -14 27
-17 3 -4 33 -24 67 -46 35 -22 63 -43 63 -47 0 -5 5 -8 11 -8 6 0 52 -28 102
-63 51 -35 142 -97 202 -138 61 -40 115 -77 120 -81 6 -5 39 -28 75 -51 72
-48 312 -211 488 -330 62 -42 117 -77 122 -77 4 0 10 -4 12 -8 2 -5 66 -51
143 -102 77 -51 142 -97 143 -102 2 -4 9 -8 15 -8 6 0 19 -7 29 -17 10 -9 27
-21 38 -27 11 -6 93 -61 183 -121 89 -61 239 -162 332 -225 94 -63 171 -118
173 -122 2 -5 8 -8 14 -8 6 0 31 -15 57 -34 96 -70 151 -106 160 -106 5 0 11
-4 13 -8 2 -4 66 -50 143 -102 77 -51 142 -97 143 -102 2 -4 8 -8 13 -8 12 0
193 -121 197 -132 2 -4 8 -8 13 -8 5 0 40 -23 79 -50 39 -28 74 -50 79 -50 5
0 11 -4 13 -8 2 -5 73 -55 158 -112 85 -57 157 -106 160 -109 3 -3 17 -12 32
-20 15 -8 37 -22 47 -33 11 -10 23 -18 26 -18 8 0 93 -59 113 -78 7 -6 17 -12
21 -12 4 0 21 -11 37 -25 16 -14 35 -25 42 -25 6 0 12 -4 12 -10 0 -5 6 -10
14 -10 8 0 16 -3 18 -8 2 -4 16 -17 31 -29 l29 -22 36 33 c21 19 134 112 252
206 118 95 233 187 254 204 89 71 111 101 229 301 7 11 24 39 40 62 15 23 27
44 27 48 0 3 18 33 40 65 22 32 40 61 40 64 0 3 20 37 45 76 25 39 45 75 45
80 0 6 4 10 9 10 5 0 11 8 15 18 3 9 16 33 28 53 57 91 205 334 227 372 13 23
28 45 33 48 5 3 8 8 7 10 -2 2 5 15 13 29 27 41 151 245 252 413 l94 157 -4
108 c-3 59 -6 134 -8 168 -1 33 -6 65 -10 72 -4 7 -3 12 3 12 5 0 8 10 5 23
-4 21 -7 86 -19 352 -2 61 -7 169 -11 240 -3 72 -8 168 -9 215 -9 207 -15 352
-20 445 -3 55 -8 159 -11 230 -2 72 -7 168 -9 215 -2 47 -7 148 -10 225 -3 77
-8 176 -10 220 -4 71 -9 183 -20 455 -2 47 -6 135 -9 195 -3 61 -8 169 -10
240 -3 72 -8 177 -12 235 -3 58 -7 155 -10 215 -5 143 -13 328 -19 435 -2 47
-7 162 -10 255 -4 94 -8 180 -10 193 -2 13 5 32 18 46 12 13 56 61 97 107 41
45 86 94 99 108 13 14 52 58 88 97 35 40 76 85 91 101 15 16 61 66 102 112 41
45 89 97 105 115 17 18 66 72 110 121 44 49 105 115 135 148 61 66 86 95 175
193 33 36 75 82 94 102 18 21 67 75 110 121 42 47 101 112 131 145 84 92 100
109 170 187 36 40 87 95 113 123 27 28 62 67 78 87 16 20 46 53 67 75 20 22
75 81 122 133 47 52 96 106 110 121 14 14 43 46 64 71 70 79 200 221 244 267
23 25 42 46 42 48 0 2 12 16 28 32 42 45 272 296 309 338 10 12 54 61 98 109
44 48 85 93 90 99 6 7 35 39 65 72 30 32 89 97 131 144 42 47 94 104 115 127
44 48 161 177 184 204 23 25 155 171 193 212 18 18 59 64 92 102 33 37 80 88
103 114 24 25 62 66 84 91 102 114 166 185 198 219 42 45 170 186 200 221 12
14 54 60 93 103 40 43 84 92 100 109 15 17 27 34 27 39 0 5 7 9 15 9 8 0 15 3
15 8 0 4 17 26 38 48 20 23 54 61 76 85 21 24 75 84 120 133 44 49 86 94 91
100 130 146 250 279 298 330 22 23 62 67 90 99 29 32 71 80 95 105 l43 47 -48
45 c-60 56 -237 219 -317 291 -33 30 -71 65 -86 79 -15 14 -62 57 -104 95 -43
39 -95 86 -115 105 -21 19 -79 73 -131 120 -51 47 -109 101 -130 120 -20 19
-74 69 -120 110 -129 117 -210 196 -210 206 0 4 9 17 20 29 17 16 145 174 172
210 4 6 29 37 55 70 49 60 119 152 248 320 38 50 73 95 78 100 4 6 40 53 79
105 39 52 76 98 82 102 6 4 8 8 3 8 -8 0 93 133 105 138 5 2 8 8 8 13 0 7 110
164 157 224 4 6 28 39 53 75 24 36 48 70 53 75 5 6 48 67 95 137 48 70 93 135
99 145 7 10 31 45 53 78 22 33 44 67 50 75 56 84 110 172 110 179 0 5 4 11 8
13 5 2 33 44 63 93 30 50 57 92 60 95 3 3 17 25 31 50 42 75 119 203 139 231
10 14 16 28 13 31 -2 3 2 11 11 18 8 7 15 18 15 25 0 8 3 15 8 17 4 2 16 21
28 43 12 22 32 60 46 85 68 121 95 172 139 260 26 52 53 106 58 120 6 14 15
32 21 40 15 23 159 343 185 410 8 19 23 60 35 90 103 267 194 589 215 765 3
22 7 51 10 65 23 113 20 380 -5 485 -7 28 -13 57 -14 65 -3 30 -40 126 -65
172 -27 48 -66 94 -117 138 -48 41 -260 140 -314 146 -14 2 -36 6 -50 9 -24 6
-257 14 -262 10z m-1133 -770 c113 -99 154 -135 180 -160 18 -16 56 -50 85
-75 28 -25 64 -56 79 -70 16 -14 58 -52 96 -85 37 -33 77 -69 89 -80 13 -11
43 -38 67 -59 24 -22 64 -58 89 -80 25 -23 79 -70 119 -106 41 -36 84 -74 96
-85 11 -11 52 -47 90 -80 39 -33 79 -69 91 -80 27 -25 193 -174 293 -262 l34
-29 -18 -40 c-88 -199 -289 -599 -315 -627 -4 -5 -27 20 -50 55 -47 69 -258
351 -287 383 -10 11 -34 40 -53 65 -90 115 -395 423 -506 510 -11 8 -46 35
-79 60 -33 25 -62 47 -65 50 -46 49 -513 343 -683 431 -101 52 -102 46 20 125
59 39 137 88 173 110 36 21 67 42 68 47 2 4 8 7 13 7 5 0 39 18 75 40 36 22
70 40 74 40 5 0 10 3 12 8 2 4 30 21 63 39 l60 31 39 -36 c22 -20 45 -41 51
-47z m-830 -520 c121 -66 300 -170 303 -177 2 -5 10 -8 18 -8 8 0 14 -4 14
-10 0 -5 5 -10 11 -10 6 0 30 -13 54 -30 24 -16 46 -30 50 -30 3 0 11 -5 18
-10 7 -6 63 -46 126 -90 63 -43 164 -118 225 -166 111 -88 416 -384 471 -459
17 -21 37 -47 46 -56 9 -9 36 -43 60 -75 24 -33 49 -63 55 -69 18 -17 224
-301 224 -310 0 -3 16 -27 35 -54 19 -26 35 -53 35 -59 0 -6 5 -12 10 -14 12
-4 -9 -68 -22 -68 -4 0 -8 -4 -8 -10 0 -5 -21 -44 -47 -87 -27 -43 -52 -85
-58 -94 -5 -9 -30 -49 -55 -88 -25 -40 -50 -80 -55 -89 -6 -9 -50 -78 -100
-152 -49 -74 -94 -143 -100 -153 -15 -25 -197 -291 -204 -297 -3 -3 -20 -25
-36 -50 -16 -25 -32 -47 -35 -50 -5 -5 -193 -263 -220 -303 -66 -97 -564 -745
-586 -763 -8 -6 -14 -14 -14 -19 0 -4 -11 -19 -24 -33 -14 -15 -66 -79 -116
-142 -50 -63 -99 -124 -108 -135 -9 -11 -35 -42 -57 -70 -22 -27 -44 -53 -49
-57 -6 -4 -4 -13 4 -23 14 -17 20 -9 -95 -131 -27 -29 -95 -101 -150 -159 -55
-59 -122 -131 -150 -160 -27 -29 -104 -110 -170 -180 -198 -211 -277 -295
-337 -358 -32 -33 -58 -61 -58 -62 0 -2 -26 -30 -57 -62 -32 -33 -107 -112
-168 -177 -60 -65 -128 -137 -150 -161 -22 -23 -101 -107 -175 -186 -74 -79
-169 -180 -212 -224 -93 -98 -138 -148 -138 -156 0 -4 35 -37 77 -75 42 -38
81 -74 87 -79 6 -6 47 -42 91 -80 44 -39 89 -79 100 -90 19 -18 139 -125 187
-167 28 -24 167 -148 323 -289 33 -30 91 -81 129 -114 37 -33 90 -81 117 -106
27 -25 50 -45 51 -44 2 1 29 -24 60 -54 l58 -56 -78 -83 c-42 -45 -81 -82 -85
-82 -7 0 -41 29 -111 95 -12 11 -60 54 -106 95 -47 41 -90 79 -96 85 -6 5 -46
42 -89 80 -43 39 -86 77 -95 85 -9 8 -49 44 -90 80 -41 36 -81 72 -90 80 -16
15 -153 138 -188 168 -10 9 -52 46 -92 82 -40 36 -81 72 -90 80 -54 47 -167
148 -184 165 -12 11 -29 26 -38 33 -19 16 -1 32 -193 -173 -66 -71 -131 -140
-145 -155 -121 -129 -263 -280 -286 -305 -15 -16 -80 -86 -144 -155 -65 -69
-132 -141 -150 -160 -18 -19 -83 -89 -145 -155 -62 -66 -128 -136 -147 -156
-73 -79 -249 -266 -285 -305 -21 -22 -92 -98 -158 -169 -66 -71 -139 -148
-163 -173 l-43 -45 44 -41 c24 -22 76 -70 117 -106 40 -36 85 -76 100 -90 15
-14 60 -55 101 -91 41 -37 86 -77 100 -90 58 -54 187 -170 208 -188 24 -21
146 -131 192 -172 23 -22 87 -79 248 -224 31 -27 71 -64 91 -82 19 -18 52 -47
72 -66 l38 -33 -43 -49 c-23 -27 -58 -66 -77 -87 l-35 -37 -56 52 c-31 28 -72
66 -91 82 -40 34 -180 160 -243 220 -24 22 -65 59 -92 82 -26 23 -62 55 -79
70 -17 15 -66 60 -109 98 -42 39 -94 86 -115 105 -20 19 -70 64 -111 100 -40
36 -83 74 -94 85 -12 11 -59 54 -106 95 -46 41 -96 86 -111 100 -106 100 -102
99 -145 53 -30 -32 -165 -177 -303 -323 -49 -53 -268 -285 -310 -329 -19 -20
-91 -97 -160 -170 -132 -141 -146 -155 -336 -357 -67 -71 -138 -147 -159 -169
-20 -22 -95 -101 -165 -175 -70 -74 -151 -160 -178 -190 -28 -30 -83 -89 -121
-130 l-71 -74 43 -38 c66 -61 178 -161 198 -178 22 -20 208 -188 293 -265 18
-16 63 -57 100 -90 38 -33 85 -76 106 -95 20 -19 72 -66 115 -105 43 -38 83
-74 89 -80 6 -5 54 -48 106 -95 104 -93 162 -146 230 -208 25 -23 48 -42 52
-42 18 0 5 -28 -33 -70 -22 -25 -55 -62 -73 -82 l-33 -37 -25 22 c-23 20 -88
78 -232 207 -27 25 -64 59 -81 75 -17 17 -63 57 -101 90 -38 33 -78 69 -90 80
-60 57 -138 128 -214 195 -47 41 -90 80 -96 85 -310 283 -503 455 -509 455 -4
0 -21 -15 -37 -32 -82 -89 -238 -256 -278 -298 -25 -26 -92 -98 -150 -160 -58
-62 -133 -142 -167 -178 -35 -36 -63 -67 -63 -69 0 -2 -19 -23 -42 -47 -24
-24 -95 -98 -158 -166 -63 -68 -131 -140 -150 -160 -19 -21 -84 -90 -145 -155
-60 -65 -132 -142 -160 -171 -27 -30 -84 -90 -125 -134 -41 -44 -97 -104 -125
-134 -108 -114 -266 -283 -298 -319 -20 -23 -39 -59 -47 -90 -7 -29 -21 -79
-32 -112 -11 -33 -21 -67 -23 -75 -9 -39 -161 -490 -192 -570 -4 -8 -7 -17 -8
-20 -1 -3 -7 -18 -13 -33 -7 -16 -12 -30 -12 -32 0 -2 -5 -16 -12 -32 -6 -15
-12 -30 -13 -33 -12 -34 -127 -274 -152 -315 -10 -16 -21 -31 -25 -33 -5 -2
-8 -8 -8 -14 0 -12 -193 -303 -283 -425 -104 -144 -181 -248 -187 -253 -3 -3
-17 -21 -30 -40 -14 -19 -30 -42 -37 -50 -7 -8 -42 -53 -78 -100 -36 -47 -71
-92 -78 -100 -7 -8 -48 -60 -92 -115 -43 -55 -87 -109 -97 -119 -10 -11 -18
-23 -18 -27 0 -5 -57 -64 -128 -133 -70 -69 -200 -197 -290 -286 -90 -88 -166
-160 -169 -160 -5 0 -81 57 -93 70 -3 3 -21 17 -40 31 -19 15 -45 35 -57 45
-48 42 -63 54 -69 54 -3 0 -15 10 -28 23 -12 12 -35 31 -50 42 -16 11 -56 43
-90 70 -34 28 -75 59 -90 70 -15 11 -40 30 -54 43 -15 13 -54 44 -87 70 -65
50 -79 62 -98 77 -7 6 -48 39 -92 74 -44 34 -89 71 -100 80 -12 10 -52 41 -90
71 -39 29 -88 68 -110 86 -22 18 -75 60 -118 94 -54 42 -75 65 -70 74 4 7 61
94 126 193 l118 180 72 33 c40 18 105 49 145 67 65 31 72 36 60 51 -20 26 -91
116 -100 127 -5 6 -32 -16 -69 -55 -81 -87 -216 -235 -265 -289 -21 -24 -57
-63 -79 -86 -117 -123 -130 -142 -174 -251 -25 -60 -47 -113 -51 -119 -6 -9
-42 -101 -46 -115 -1 -5 -4 -12 -47 -115 -14 -33 -45 -109 -70 -170 -25 -60
-63 -154 -85 -207 -22 -54 -37 -98 -34 -98 4 0 2 -4 -3 -8 -6 -4 -18 -25 -27
-47 -9 -22 -26 -65 -38 -95 -12 -30 -23 -56 -25 -58 -2 -3 -81 71 -265 248
-52 50 -101 95 -109 99 -19 11 -7 29 124 175 91 101 117 131 165 186 30 35 62
71 70 80 8 9 42 48 75 85 33 38 71 81 85 96 14 15 41 46 61 70 21 24 48 56 60
70 34 36 138 154 194 219 26 30 55 62 64 71 9 9 36 40 61 70 25 29 52 60 60
69 8 8 42 47 75 85 33 38 67 76 75 85 8 9 29 32 45 51 82 94 171 195 175 199
3 3 36 41 75 85 38 44 74 85 80 91 46 51 80 90 140 159 38 44 74 85 80 91 5 6
39 44 75 84 36 41 74 84 85 96 11 13 41 47 67 76 25 29 59 67 75 85 15 18 51
58 78 89 28 32 59 68 70 80 11 12 31 35 44 50 14 16 52 61 86 99 34 39 75 85
91 104 16 18 45 50 64 71 19 21 46 51 59 66 28 33 294 336 329 374 12 14 22
27 22 30 0 7 -156 150 -164 150 -10 0 -120 -109 -2466 -2439 -371 -369 -680
-671 -686 -671 -6 0 -22 9 -35 20 -30 24 -30 25 -104 80 -33 24 -85 68 -116
96 l-57 52 326 218 c179 121 330 221 336 223 10 4 24 15 51 39 7 6 18 12 23
12 5 0 22 11 38 25 16 14 34 25 41 25 6 0 13 4 15 9 2 5 37 30 78 56 51 33
125 99 233 209 87 89 212 215 278 282 l120 121 -76 56 c-42 31 -80 57 -84 57
-4 0 -34 -66 -66 -147 -31 -82 -63 -151 -69 -155 -6 -4 -60 -44 -121 -88 -60
-44 -141 -103 -180 -131 l-70 -51 -39 44 c-21 24 -76 84 -121 133 -46 50 -93
101 -105 115 -12 14 -45 50 -73 81 -29 30 -86 93 -129 140 -42 46 -95 104
-118 129 -23 25 -65 71 -93 104 -29 32 -68 75 -87 95 -36 38 -171 186 -253
276 -25 28 -61 68 -81 89 -20 22 -36 42 -36 45 0 4 13 20 28 38 15 17 34 40
42 50 8 10 35 43 60 73 25 30 54 66 65 79 11 13 27 32 35 40 8 9 26 32 40 51
13 19 27 37 31 40 3 3 30 34 60 70 29 36 57 67 61 68 4 2 8 8 8 13 0 6 10 20
23 32 12 13 49 59 82 102 63 83 174 194 377 377 45 40 92 82 104 93 67 61 98
88 189 165 55 47 111 94 124 105 13 11 33 28 43 38 10 9 21 17 24 17 3 0 29
20 57 43 48 40 125 97 166 122 9 6 18 12 21 15 11 12 119 79 180 112 75 40
300 144 330 153 3 1 23 9 45 19 22 10 69 29 105 42 36 13 74 29 85 34 36 17
518 190 543 194 6 1 22 16 35 32 12 17 29 38 37 46 8 8 47 50 85 93 39 43 81
90 94 104 13 14 52 58 88 97 35 40 76 85 91 101 29 31 165 181 195 217 24 28
146 163 172 190 11 12 40 44 65 72 25 28 80 88 122 135 42 46 85 94 97 107 29
34 130 147 171 191 19 21 64 71 100 111 36 41 84 93 108 118 23 24 42 46 42
48 0 2 15 19 33 37 30 32 151 166 187 207 36 41 156 175 178 196 33 34 46 17
-122 167 -37 34 -87 79 -110 100 -22 21 -55 51 -72 65 -36 32 -182 163 -232
210 -20 18 -62 56 -95 85 -33 29 -82 72 -108 97 -26 25 -76 70 -110 100 -34
30 -77 69 -95 85 -17 17 -65 59 -105 95 -40 36 -77 70 -83 75 -6 6 -48 43 -93
84 l-83 74 29 36 c16 20 49 58 74 85 l44 50 34 -32 c19 -17 61 -55 94 -84 32
-29 74 -68 92 -85 19 -18 36 -33 38 -33 3 0 13 -8 23 -17 31 -31 194 -178 202
-183 4 -3 47 -41 96 -85 126 -115 126 -115 191 -172 33 -29 73 -65 90 -80 16
-15 63 -57 103 -93 117 -103 151 -134 174 -155 11 -11 55 -49 96 -85 41 -36
82 -74 91 -84 16 -19 17 -19 40 5 28 29 169 184 198 217 10 13 55 62 99 110
44 48 96 105 116 128 19 22 50 56 68 76 18 19 69 74 113 123 44 49 99 109 121
134 23 26 52 58 65 72 32 36 168 185 199 219 14 15 42 47 64 71 21 24 66 74
100 110 33 36 90 99 126 139 36 40 76 85 90 100 42 46 184 202 200 220 58 66
170 190 197 216 l33 32 -92 84 c-50 45 -101 92 -112 103 -12 11 -64 58 -116
105 -52 47 -101 92 -110 100 -9 8 -56 51 -104 95 -49 44 -108 98 -131 120 -24
22 -69 63 -102 92 -32 28 -74 67 -94 85 -20 18 -74 67 -119 108 -46 41 -95 86
-110 100 -15 14 -67 61 -115 105 -141 128 -129 111 -106 143 11 15 44 53 73
85 l53 58 51 -48 c29 -26 77 -70 108 -98 32 -27 77 -68 101 -91 24 -22 69 -62
100 -90 30 -27 77 -69 103 -93 26 -24 69 -62 95 -85 27 -22 72 -63 101 -91 29
-27 84 -77 121 -110 37 -33 77 -69 89 -80 142 -127 194 -174 216 -195 15 -14
60 -54 100 -90 41 -36 81 -72 90 -80 61 -56 58 -55 77 -33 10 11 38 43 63 70
25 28 74 83 110 123 36 40 79 87 95 105 17 18 59 65 95 105 70 78 78 86 185
205 39 43 78 87 88 99 10 11 53 59 95 105 42 46 85 93 95 105 10 12 51 57 90
100 40 43 80 88 90 100 17 20 130 144 172 190 11 12 56 62 100 111 44 50 96
108 116 130 21 22 50 54 65 71 16 18 54 60 84 94 30 34 74 83 98 108 72 78
132 149 132 157 0 6 -58 65 -65 65 -2 0 -19 15 -38 33 -19 17 -70 64 -113 102
-43 39 -103 93 -134 120 -31 28 -91 82 -135 120 -43 39 -93 84 -111 100 -17
17 -60 55 -95 85 -34 30 -70 62 -79 70 -31 27 -162 145 -190 170 -34 32 -153
138 -203 182 -21 18 -65 58 -98 88 l-60 56 23 25 c101 111 128 139 132 139 2
0 11 -6 18 -12 16 -16 179 -161 232 -209 21 -19 51 -45 65 -59 14 -14 67 -61
116 -105 50 -43 102 -91 116 -105 14 -14 59 -54 100 -90 40 -36 80 -72 89 -80
9 -8 36 -33 61 -55 61 -55 206 -185 239 -215 15 -14 65 -59 111 -100 46 -41
96 -86 110 -100 71 -65 82 -70 96 -46 10 17 86 105 138 160 22 23 60 64 84 92
74 84 175 196 196 218 11 12 74 82 140 156 66 74 131 147 145 161 14 14 50 54
80 90 30 35 60 69 66 74 6 6 51 55 100 110 101 113 140 157 169 189 48 54 172
191 194 215 12 14 49 55 81 91 32 36 69 77 81 91 20 22 62 68 184 203 11 13
45 51 75 85 30 34 76 85 103 112 26 27 47 51 47 53 0 19 324 341 535 532 17
14 57 52 91 83 107 98 232 212 256 233 13 10 37 31 53 46 17 15 68 60 115 102
47 41 99 87 115 102 39 34 68 60 129 111 27 23 54 47 60 52 9 9 265 223 331
277 11 9 61 48 110 86 50 39 97 77 105 84 9 8 34 27 55 43 56 42 53 40 121 93
89 70 302 225 327 239 17 10 27 9 52 -6 16 -10 53 -31 80 -46z m-9477 -6684
c-7 -9 -17 -21 -23 -27 -5 -6 -41 -46 -80 -89 -38 -42 -84 -92 -100 -109 -17
-17 -71 -76 -120 -130 -50 -55 -97 -107 -105 -116 -14 -15 -168 -183 -215
-236 -90 -99 -195 -214 -220 -240 -16 -17 -48 -51 -69 -75 -70 -79 -272 -301
-351 -385 -16 -18 -61 -67 -100 -110 -38 -42 -81 -89 -95 -104 -14 -15 -59
-64 -100 -110 -41 -46 -86 -95 -100 -110 -14 -15 -56 -62 -95 -105 -38 -42
-92 -100 -118 -129 -27 -28 -74 -80 -105 -115 -32 -35 -73 -80 -92 -101 -19
-21 -71 -77 -115 -126 -44 -48 -101 -110 -127 -138 -50 -53 -58 -73 -34 -82 8
-3 13 -11 10 -18 -3 -7 28 -42 67 -77 40 -35 83 -73 95 -84 12 -11 43 -38 69
-60 25 -22 65 -57 88 -78 23 -22 59 -53 80 -70 21 -18 51 -43 66 -57 15 -14
60 -54 101 -90 41 -36 99 -87 129 -114 31 -27 72 -63 91 -80 19 -17 91 -80
160 -140 69 -60 154 -135 190 -167 36 -32 74 -66 86 -76 12 -10 40 -35 64 -57
l42 -38 -24 -24 c-16 -17 -86 -45 -214 -88 -219 -74 -431 -153 -594 -224 -117
-50 -291 -133 -300 -142 -3 -3 -27 -16 -55 -30 -27 -14 -52 -27 -55 -30 -14
-14 -118 -80 -126 -80 -5 0 -28 17 -50 38 -38 34 -181 166 -258 237 -18 17
-72 66 -120 110 -49 44 -108 99 -132 122 -24 23 -44 40 -44 39 0 -1 -24 20
-53 48 -29 28 -99 94 -156 146 -57 52 -116 106 -131 120 -15 14 -60 54 -99 90
-40 36 -94 85 -120 110 -40 38 -130 121 -266 244 -76 69 -231 214 -262 244
-18 18 -33 31 -33 29 0 -2 -26 21 -59 52 -32 31 -95 90 -141 131 -45 41 -99
91 -119 110 -20 19 -79 73 -131 120 -51 47 -112 103 -136 125 -23 22 -62 57
-85 79 -24 21 -71 64 -105 95 -33 31 -102 94 -153 141 -51 47 -107 99 -125
115 -18 17 -74 68 -125 115 -51 47 -105 96 -120 110 -15 14 -76 70 -136 125
-60 55 -123 114 -141 130 -113 106 -219 201 -230 208 -18 11 -18 37 0 37 8 0
16 3 18 8 5 12 85 72 96 72 5 0 15 7 22 15 7 8 57 47 112 87 55 40 123 90 151
111 29 20 70 49 91 63 22 15 49 35 60 46 12 11 37 29 56 41 19 11 37 24 40 27
4 6 133 100 190 140 12 8 31 23 43 32 32 24 122 91 147 108 12 8 87 63 167
123 80 59 149 107 154 107 5 0 9 5 9 10 0 6 7 10 15 10 8 0 15 4 15 8 0 4 12
15 28 24 26 15 52 17 277 23 50 1 167 5 260 9 94 4 222 9 285 11 63 2 198 7
300 11 102 3 230 8 285 9 55 2 164 6 241 9 78 4 206 9 285 11 79 2 214 6 299
10 85 3 207 8 270 10 63 2 178 6 255 10 77 3 208 7 290 10 83 2 209 7 280 10
72 3 202 8 290 10 88 3 214 7 280 10 66 2 189 6 274 9 84 3 155 6 156 8 2 2
47 4 99 4 88 1 95 0 84 -15z m-6038 -1434 c31 -28 100 -92 154 -142 54 -49
113 -103 130 -120 18 -16 79 -73 136 -125 57 -52 121 -111 141 -130 20 -19 64
-60 98 -90 35 -30 86 -77 115 -105 29 -27 93 -86 141 -130 49 -44 106 -96 127
-116 21 -20 77 -72 125 -115 47 -44 101 -92 119 -109 17 -16 74 -68 124 -115
51 -47 105 -96 120 -110 15 -14 67 -61 115 -105 49 -44 108 -99 132 -122 24
-22 67 -62 96 -89 29 -26 97 -88 152 -138 54 -50 119 -110 143 -133 25 -23 59
-55 77 -70 28 -25 165 -151 275 -253 20 -19 79 -73 130 -120 130 -118 133
-121 244 -223 55 -51 111 -103 125 -116 48 -43 224 -206 285 -262 34 -31 81
-75 106 -97 25 -22 43 -42 40 -44 -138 -110 -356 -294 -401 -337 -9 -9 -58
-54 -109 -101 -88 -80 -130 -120 -283 -267 -36 -35 -70 -63 -75 -63 -6 0 -21
15 -33 33 -13 17 -26 34 -29 37 -3 3 -24 27 -45 55 -22 27 -44 55 -50 61 -5 6
-21 26 -35 44 -14 18 -33 42 -43 54 -10 11 -31 36 -45 55 -15 18 -34 41 -42
51 -8 10 -28 35 -45 56 -16 20 -35 42 -40 48 -6 6 -26 31 -44 56 -19 25 -40
50 -46 55 -6 6 -29 33 -49 60 -21 28 -41 52 -45 55 -4 3 -20 23 -37 45 -16 21
-36 47 -44 56 -8 9 -27 32 -41 50 -15 19 -72 90 -129 159 -56 69 -111 137
-123 153 -12 15 -35 42 -51 60 -16 17 -40 48 -55 67 -14 19 -28 37 -32 40 -3
3 -23 28 -45 55 -22 28 -47 59 -56 70 -10 11 -41 50 -70 86 -71 88 -169 209
-189 234 -47 56 -137 167 -159 195 -14 18 -30 37 -35 44 -15 16 -401 492 -450
554 -5 7 -17 21 -26 30 -8 9 -33 39 -55 67 -59 74 -67 84 -128 157 -31 37 -56
70 -56 72 0 3 -12 19 -27 35 -16 16 -40 44 -54 63 -22 28 -235 290 -287 353
-9 11 -44 54 -77 95 -32 41 -71 88 -86 104 l-27 29 61 91 c34 50 66 96 72 103
5 7 16 19 23 27 6 8 12 19 12 23 0 5 10 19 23 33 12 14 28 37 36 53 8 15 18
27 23 27 4 0 8 5 8 10 0 11 21 39 30 39 3 1 30 -23 60 -52z m11377 -3540 c2
-29 5 -88 7 -132 2 -44 7 -138 11 -210 3 -71 8 -166 10 -210 3 -44 7 -127 10
-185 4 -96 9 -199 20 -430 12 -234 15 -293 20 -390 3 -58 7 -152 10 -210 2
-58 7 -152 11 -210 3 -58 8 -145 10 -195 2 -49 6 -133 8 -185 3 -52 8 -149 11
-215 3 -66 8 -163 11 -215 3 -52 7 -140 9 -195 2 -55 6 -140 9 -190 3 -49 8
-137 11 -195 3 -58 7 -157 10 -220 3 -63 8 -153 10 -200 5 -95 11 -222 20
-415 4 -71 8 -143 10 -158 1 -16 -7 -41 -20 -61 -12 -18 -24 -37 -26 -42 -8
-18 -93 -159 -100 -164 -3 -3 -18 -26 -32 -52 -14 -25 -38 -66 -53 -90 -16
-23 -34 -52 -40 -63 -6 -11 -41 -69 -79 -130 -37 -60 -76 -123 -85 -140 -24
-41 -330 -541 -391 -638 -27 -43 -49 -80 -49 -83 0 -3 -11 -20 -25 -38 -14
-18 -25 -37 -25 -42 0 -6 -5 -15 -11 -21 -8 -8 -18 -3 -38 16 -16 14 -70 64
-121 111 -118 108 -127 116 -250 230 -57 52 -112 103 -124 113 -12 10 -64 58
-116 107 -103 96 -112 104 -250 230 -116 106 -125 114 -246 227 -55 50 -109
100 -121 111 -13 10 -51 46 -86 78 -35 32 -88 82 -118 109 -208 190 -455 417
-543 500 -12 11 -69 63 -126 115 -57 52 -114 104 -126 115 -18 18 -156 144
-234 215 -15 14 -73 68 -130 120 -57 52 -115 106 -130 120 -15 14 -69 63 -120
110 -51 47 -105 96 -120 110 -83 75 -239 219 -267 246 -18 18 -33 31 -33 30 0
-2 -24 20 -53 48 -30 28 -89 83 -132 122 l-78 72 42 72 c43 75 171 332 171
344 0 4 9 27 20 51 27 59 102 262 156 420 24 72 47 137 51 145 3 8 7 21 9 29
3 15 52 168 61 191 3 8 7 20 7 25 5 34 29 96 36 93 5 -2 78 -69 162 -149 84
-80 188 -179 232 -220 43 -41 104 -99 135 -129 32 -30 122 -116 200 -190 79
-74 178 -169 221 -210 394 -378 387 -372 435 -324 14 14 25 27 25 29 0 2 15
19 33 37 17 19 52 57 77 84 56 63 197 218 230 254 14 16 57 63 95 106 39 42
81 89 95 104 14 15 57 63 95 106 39 43 85 93 103 112 17 18 32 35 32 37 0 1
18 22 40 45 22 24 62 67 88 97 26 30 70 78 97 107 28 29 84 91 125 137 41 46
89 98 105 115 17 18 49 54 72 81 22 26 63 71 90 100 26 28 57 62 69 76 36 41
198 221 219 243 11 11 52 56 91 100 40 43 83 91 95 105 13 14 56 61 94 104 39
43 75 83 80 89 6 6 55 61 110 121 55 61 114 126 132 145 18 19 33 39 33 44 0
5 3 6 8 2 4 -4 8 -31 9 -59z m-4387 -2887 c26 -23 197 -179 251 -230 33 -31
126 -116 223 -205 18 -16 79 -73 136 -125 56 -52 110 -101 120 -110 22 -19
179 -163 235 -215 23 -22 82 -76 130 -120 48 -44 105 -96 125 -115 21 -19 79
-73 130 -120 51 -47 105 -96 120 -110 15 -14 66 -61 115 -105 48 -44 102 -93
120 -110 49 -46 242 -223 315 -289 36 -33 72 -67 81 -75 9 -9 55 -52 104 -96
48 -44 108 -100 134 -123 25 -24 82 -76 125 -115 93 -85 104 -95 232 -214 54
-50 111 -102 125 -115 117 -107 230 -210 270 -248 27 -25 80 -74 120 -110 254
-232 293 -269 288 -273 -2 -1 -24 -19 -49 -38 -25 -20 -85 -66 -135 -104 -49
-38 -92 -72 -95 -75 -3 -3 -24 -20 -47 -38 -38 -29 -44 -32 -65 -20 -13 7 -25
15 -28 19 -11 12 -162 109 -170 109 -5 0 -10 4 -12 8 -4 11 -226 162 -237 162
-5 0 -11 3 -13 8 -1 4 -93 67 -203 141 -110 74 -209 142 -221 152 -11 11 -24
19 -28 19 -9 0 -70 43 -74 53 -2 4 -7 7 -12 7 -6 0 -349 228 -385 257 -6 4
-118 80 -250 168 -132 88 -241 163 -243 168 -2 4 -10 7 -17 7 -7 0 -15 3 -17
8 -1 4 -28 23 -58 42 -30 19 -57 37 -60 40 -3 3 -72 51 -155 106 -82 56 -206
139 -275 185 -69 46 -126 87 -128 91 -2 5 -7 8 -12 8 -5 0 -71 42 -147 94 -76
52 -244 166 -373 252 -129 87 -236 161 -238 166 -2 4 -10 8 -18 8 -8 0 -14 5
-14 10 0 6 -6 10 -13 10 -7 0 -22 8 -33 18 -20 18 -132 94 -149 101 -16 6 -80
55 -83 64 -2 4 -8 7 -12 7 -5 0 -43 23 -84 51 l-75 52 50 61 c28 34 55 63 60
64 5 2 9 8 9 14 0 10 15 29 96 121 13 15 24 31 24 36 0 5 3 11 8 13 9 4 126
152 208 263 32 44 61 82 64 85 11 11 108 149 145 207 22 34 40 62 41 62 1 1
11 -8 24 -19z"/>
<path d="M22279 28030 c-14 -14 -58 -54 -99 -90 -40 -36 -85 -76 -100 -90 -15
-14 -55 -50 -89 -80 -35 -30 -89 -79 -122 -109 l-60 -54 43 -25 c24 -14 53
-34 66 -45 12 -11 22 -17 22 -13 0 4 15 -4 33 -18 34 -26 71 -34 82 -16 3 5
31 22 63 38 31 16 73 38 93 49 83 47 106 57 139 59 92 7 366 17 383 15 4 -1
-9 -19 -30 -42 -21 -23 -49 -53 -62 -67 l-23 -26 38 -34 c22 -19 65 -57 98
-86 32 -28 71 -62 86 -76 15 -14 51 -45 79 -70 29 -25 65 -56 80 -70 16 -14
52 -45 80 -70 29 -25 64 -56 79 -70 208 -187 240 -212 272 -205 14 3 41 7 60
9 19 2 47 7 63 11 27 7 27 7 28 -41 0 -27 3 -76 5 -109 13 -205 15 -191 -33
-294 -25 -53 -54 -116 -65 -141 -11 -25 -24 -52 -28 -60 -6 -13 23 -93 40
-110 3 -3 25 -43 49 -90 24 -47 49 -91 56 -98 10 -11 28 6 96 95 46 59 88 113
94 119 5 7 19 24 30 40 11 15 25 32 30 38 6 6 32 40 60 76 27 36 56 71 63 79
47 49 48 47 -23 227 -37 93 -75 188 -86 211 -10 24 -19 47 -19 53 0 6 -9 29
-19 53 -11 23 -65 159 -120 302 -56 143 -106 269 -110 280 -8 19 -47 118 -71
182 -11 29 -26 42 -56 48 -6 2 -76 22 -155 45 -79 23 -148 43 -154 45 -5 1
-17 5 -25 8 -8 3 -28 9 -45 13 -16 4 -32 8 -35 9 -3 0 -32 9 -65 20 -33 10
-64 19 -70 21 -5 1 -82 23 -170 49 -88 26 -169 49 -180 52 -11 3 -24 6 -30 8
-5 1 -13 3 -17 4 -4 1 -20 6 -35 11 -16 5 -64 19 -108 32 l-80 23 -26 -25z"/>
<path d="M21995 26690 c-22 -9 -39 -24 -101 -91 -96 -104 -89 -144 46 -271 68
-65 73 -68 120 -68 48 0 52 2 111 63 78 80 99 113 99 160 0 34 -8 46 -73 113
-92 92 -146 118 -202 94z"/>
<path d="M22358 26307 c-81 -81 -135 -152 -132 -174 1 -7 2 -26 3 -41 1 -21
18 -45 64 -90 105 -103 115 -108 200 -100 19 1 144 129 165 169 26 50 13 86
-61 162 -87 91 -112 107 -164 107 -34 0 -48 -6 -75 -33z"/>
<path d="M21217 25804 c-1 -1 -24 -4 -52 -7 -102 -11 -148 -25 -270 -82 -90
-43 -127 -68 -204 -140 -51 -48 -141 -156 -141 -170 0 -4 -9 -18 -20 -32 -19
-24 -78 -167 -86 -208 -2 -11 -10 -46 -18 -78 -11 -46 -16 -282 -6 -282 1 0 4
-12 5 -26 5 -35 44 -158 63 -194 9 -16 16 -32 17 -35 1 -15 83 -126 123 -167
56 -58 135 -123 149 -123 6 0 21 -8 34 -18 25 -19 118 -59 154 -66 11 -3 43
-10 70 -16 62 -15 225 -15 285 0 25 6 56 13 69 16 44 9 155 60 216 99 79 50
193 166 249 252 52 81 117 229 115 263 0 3 4 17 10 32 15 39 31 230 21 258 -1
3 -3 21 -6 40 -8 65 -12 85 -35 155 -13 39 -23 72 -24 75 0 3 -3 10 -7 15 -3
6 -15 26 -26 46 -54 96 -64 110 -141 186 -85 84 -223 166 -298 179 -16 2 -35
7 -43 10 -29 10 -194 25 -203 18z m123 -247 c8 -2 29 -7 45 -12 70 -18 171
-82 240 -150 156 -156 204 -343 145 -565 -15 -56 -79 -190 -91 -190 -5 0 -9
-6 -9 -12 0 -19 -128 -151 -181 -186 -66 -44 -160 -73 -250 -76 -79 -4 -140 5
-222 30 -39 11 -147 68 -147 76 0 4 -6 8 -12 8 -21 0 -120 110 -160 175 -45
75 -68 156 -72 248 -3 73 13 195 34 257 68 204 269 377 465 402 34 5 192 1
215 -5z"/>
<path d="M19309 24674 c-50 -15 -66 -29 -186 -160 -45 -50 -97 -106 -115 -125
-18 -20 -69 -75 -113 -124 -44 -49 -91 -100 -105 -115 -24 -26 -177 -193 -230
-250 -60 -65 -191 -209 -236 -259 -27 -29 -70 -76 -96 -103 -27 -28 -48 -52
-48 -54 0 -2 -15 -18 -32 -37 -18 -18 -73 -77 -123 -132 -103 -113 -109 -119
-220 -240 -45 -49 -99 -108 -119 -130 -19 -23 -57 -64 -83 -91 -27 -28 -80
-86 -120 -130 -76 -85 -80 -89 -213 -234 -48 -52 -100 -108 -115 -125 -73 -80
-193 -211 -220 -239 -16 -18 -68 -74 -115 -126 -47 -52 -110 -121 -141 -154
-75 -81 -142 -154 -175 -191 -14 -16 -66 -73 -114 -125 -48 -52 -100 -108
-115 -125 -15 -16 -61 -68 -103 -114 -43 -45 -88 -95 -102 -111 -85 -93 -199
-218 -225 -245 -16 -18 -66 -72 -110 -120 -44 -48 -93 -102 -110 -120 -16 -18
-66 -72 -110 -121 -44 -48 -96 -104 -115 -125 -19 -21 -51 -55 -70 -77 -19
-21 -62 -67 -95 -103 -33 -36 -100 -110 -150 -164 -49 -54 -115 -126 -146
-159 -31 -34 -79 -85 -105 -115 -68 -75 -88 -96 -181 -197 -135 -148 -144
-158 -155 -184 -28 -62 -29 -124 -6 -180 21 -50 75 -104 352 -355 12 -11 69
-63 125 -115 57 -52 116 -106 131 -120 15 -14 68 -62 116 -106 49 -45 103 -94
119 -109 17 -15 77 -71 135 -124 57 -53 127 -116 154 -141 27 -25 64 -58 82
-75 17 -16 69 -64 114 -105 46 -41 88 -80 94 -86 7 -6 28 -19 46 -29 39 -20
157 -29 178 -12 6 5 12 7 12 3 0 -13 83 37 105 62 13 15 40 46 61 68 73 78
229 247 247 268 19 22 36 40 193 212 131 143 138 150 223 243 42 46 92 101
111 121 19 21 69 75 110 120 41 45 91 99 110 120 19 21 71 77 115 125 44 49
91 100 105 115 14 15 63 69 110 120 47 51 96 105 110 120 14 15 59 65 100 110
41 45 86 94 100 109 14 14 70 76 125 136 103 114 158 173 210 229 17 18 66 72
110 120 44 49 94 103 110 120 17 18 65 71 108 118 42 47 89 98 104 114 78 86
215 235 264 288 78 84 102 111 173 189 33 38 84 92 111 122 28 29 82 88 120
131 39 43 84 92 100 109 26 28 147 159 214 234 13 14 67 73 121 131 53 58 109
119 124 135 15 17 44 48 64 70 21 22 80 87 132 145 52 57 104 114 115 126 11
11 58 63 105 114 47 52 114 125 150 164 36 38 76 82 90 97 14 15 54 59 90 99
36 40 79 87 95 104 187 201 196 215 192 322 -3 78 -31 141 -82 184 -16 14 -51
45 -78 70 -60 54 -78 71 -197 180 -51 47 -110 101 -130 120 -35 34 -195 179
-230 210 -14 12 -177 162 -250 230 -9 8 -61 56 -115 105 -55 50 -116 106 -136
125 -20 19 -72 67 -114 105 -43 39 -83 75 -90 81 -46 46 -161 64 -246 38z
m149 -261 c27 -27 89 -84 138 -128 48 -44 115 -105 149 -136 33 -31 78 -71 99
-90 22 -19 63 -56 91 -84 28 -27 74 -70 101 -94 27 -25 94 -85 148 -135 55
-50 109 -100 122 -111 12 -11 63 -58 114 -105 51 -47 107 -98 124 -114 17 -15
51 -47 76 -70 25 -22 66 -60 92 -83 l46 -42 -20 -23 c-33 -39 -137 -153 -176
-195 -20 -22 -77 -84 -127 -138 -49 -55 -103 -112 -118 -129 -15 -16 -62 -68
-105 -115 -42 -46 -90 -99 -107 -117 -16 -17 -64 -69 -106 -115 -42 -46 -87
-96 -100 -110 -13 -14 -62 -68 -109 -119 -47 -51 -101 -111 -121 -132 -20 -21
-72 -77 -115 -125 -44 -48 -96 -105 -116 -127 -21 -23 -38 -45 -38 -49 0 -5
-4 -6 -9 -2 -5 3 -12 -4 -16 -15 -10 -31 -25 -25 -91 38 -52 48 -107 98 -257
236 -13 12 -61 55 -106 96 -46 41 -104 95 -131 120 -26 25 -69 65 -96 89 -27
24 -76 69 -110 100 -33 31 -105 97 -159 146 -54 50 -120 110 -146 135 -26 25
-73 68 -104 95 -32 28 -86 77 -121 110 l-63 61 46 49 c104 113 275 300 348
381 39 42 190 207 215 234 14 14 70 75 125 135 54 61 115 127 135 149 19 21
54 58 78 83 23 24 42 46 42 48 0 2 21 25 46 51 25 26 75 81 112 122 37 40 90
98 117 127 28 29 68 74 90 99 22 25 45 46 52 46 6 0 34 -21 61 -47z m-1567
-1703 c15 -14 61 -56 104 -95 42 -38 89 -81 104 -95 15 -14 74 -68 130 -120
57 -52 116 -106 131 -120 35 -33 114 -105 230 -210 51 -47 105 -96 120 -110
15 -14 65 -60 112 -102 46 -43 98 -90 114 -105 52 -49 218 -201 241 -220 l21
-19 -40 -44 c-23 -25 -80 -88 -129 -140 -48 -52 -99 -108 -114 -125 -31 -35
-178 -195 -215 -234 -14 -15 -68 -74 -120 -131 -114 -126 -96 -106 -205 -225
-49 -54 -103 -112 -118 -129 -37 -40 -97 -105 -172 -187 -33 -36 -100 -110
-150 -164 -155 -169 -143 -158 -158 -143 -8 7 -53 49 -101 92 -48 44 -102 93
-120 110 -39 37 -108 100 -235 216 -52 47 -106 96 -121 110 -15 14 -69 63
-120 110 -51 47 -107 98 -124 114 -45 41 -226 208 -252 231 -12 11 -62 56
-110 101 -49 45 -106 97 -128 116 l-39 35 58 64 c96 106 238 260 275 300 19
20 69 74 110 120 41 45 86 95 100 109 14 15 63 69 110 120 47 51 96 105 110
120 14 15 61 67 105 115 91 100 100 110 210 230 87 95 94 104 234 254 102 110
93 107 152 51z m-1568 -1699 c23 -22 56 -52 73 -68 17 -15 73 -66 124 -113 51
-47 105 -96 120 -110 113 -103 217 -199 240 -220 15 -14 69 -63 120 -110 111
-102 122 -112 240 -220 51 -47 108 -98 125 -115 18 -16 72 -66 120 -110 161
-147 149 -133 134 -153 -8 -9 -34 -39 -60 -67 -25 -27 -64 -70 -87 -95 -54
-60 -100 -110 -198 -216 -89 -97 -92 -100 -209 -229 -44 -49 -98 -107 -120
-131 -51 -54 -194 -210 -218 -238 -10 -12 -56 -61 -102 -111 -123 -133 -145
-159 -145 -167 0 -5 -7 -8 -15 -8 -8 0 -15 -3 -15 -8 0 -4 -18 -27 -41 -52
-59 -65 -180 -197 -209 -229 -14 -15 -48 -52 -76 -83 l-51 -55 -49 45 c-27 24
-92 84 -144 132 -101 93 -109 101 -239 219 -47 42 -101 92 -122 111 -20 19
-74 69 -119 110 -46 41 -95 86 -110 100 -15 14 -71 66 -125 115 -54 50 -110
101 -125 115 -15 14 -62 57 -104 95 -43 39 -111 101 -152 139 l-73 68 24 27
c13 14 34 37 45 51 12 14 47 52 78 85 31 33 95 103 142 154 47 52 96 106 110
121 14 15 66 71 115 126 50 54 111 121 137 148 25 28 58 65 73 81 15 17 66 72
114 124 47 51 97 106 111 121 14 15 63 69 110 120 93 101 113 124 179 196 24
27 72 78 105 114 34 36 95 103 136 148 41 45 79 82 83 82 5 0 28 -18 50 -39z"/>
<path d="M14040 18417 c-36 -11 -79 -51 -225 -212 -92 -101 -111 -121 -183
-199 -67 -73 -85 -110 -85 -168 0 -70 23 -106 139 -214 59 -54 136 -126 171
-158 35 -32 72 -66 82 -75 51 -45 190 -173 242 -222 33 -31 59 -55 59 -54 0 2
15 -11 33 -28 32 -31 228 -212 251 -232 30 -26 65 -39 115 -41 67 -3 117 20
169 78 21 22 48 53 62 68 36 40 199 217 253 275 56 60 79 106 82 159 4 85 -21
116 -289 357 -27 24 -65 60 -86 79 -20 19 -79 73 -130 120 -51 47 -105 96
-120 110 -15 14 -63 57 -106 97 -43 39 -95 86 -115 105 -84 79 -126 115 -156
136 -37 26 -111 34 -163 19z m126 -292 c17 -16 68 -64 114 -105 45 -41 97 -88
114 -105 18 -16 73 -66 121 -110 49 -44 106 -96 126 -115 35 -33 153 -142 262
-240 52 -47 56 -58 30 -81 -10 -8 -54 -55 -98 -104 -44 -49 -105 -115 -135
-148 l-55 -59 -36 34 c-52 47 -213 195 -272 248 -27 25 -68 63 -92 85 -23 22
-77 72 -120 110 -42 39 -94 86 -115 105 -20 19 -76 71 -124 114 -47 44 -86 83
-86 88 0 5 17 26 38 46 37 38 172 185 233 254 36 41 33 42 95 -17z"/>
<path d="M7745 9000 c-12 -4 -13 -331 -12 -2195 l2 -2190 365 -1 c201 -1 367
2 370 6 4 6 5 4359 1 4380 -1 3 -161 5 -356 5 -196 0 -362 -2 -370 -5z"/>
<path d="M9699 8999 c-5 -3 -8 -917 -6 -2195 l2 -2189 368 -2 367 -1 1 26 c0
15 1 421 2 902 l2 875 973 3 973 2 0 123 c0 67 0 131 0 142 0 11 -1 110 -3
220 l-3 200 -960 1 c-528 1 -965 2 -971 3 -15 1 -16 1188 -1 1198 15 9 1497 9
1497 0 0 -5 5 -5 12 -1 16 10 468 11 468 1 0 -5 5 -5 12 -1 6 4 49 8 96 8 l85
1 2 343 c2 245 -1 342 -9 343 -55 4 -2900 3 -2907 -2z"/>
<path d="M13080 9002 c-6 -2 -10 -125 -10 -340 l0 -337 656 0 c361 0 661 -3
666 -6 7 -5 11 -586 11 -1857 l0 -1849 367 -1 c336 0 368 1 372 16 2 9 3 844
3 1854 -1 1655 0 1837 14 1840 9 2 307 3 664 3 356 0 648 2 648 5 5 24 2 654
-3 663 -5 8 -474 11 -1692 11 -927 1 -1691 0 -1696 -2z"/>
<path d="M17282 8996 c-7 -13 -6 -4361 2 -4374 4 -7 126 -10 371 -10 l365 0 0
2194 c0 2082 -1 2194 -17 2195 -104 6 -716 2 -721 -5z"/>
<path d="M19809 5804 c-199 -38 -330 -172 -335 -342 -3 -90 14 -143 66 -204
54 -62 144 -111 308 -165 219 -72 288 -119 279 -192 -5 -43 -25 -79 -49 -87
-10 -3 -18 -9 -18 -13 0 -16 -79 -30 -150 -26 -116 6 -227 46 -340 124 l-45
31 -22 -28 c-13 -15 -23 -32 -23 -39 0 -6 -4 -13 -8 -15 -9 -3 -72 -104 -72
-115 0 -3 8 -12 18 -19 20 -16 124 -78 132 -79 3 -1 20 -9 38 -18 17 -10 32
-15 32 -11 0 4 7 1 15 -6 8 -7 15 -9 15 -5 0 4 6 3 13 -2 14 -12 55 -23 107
-30 19 -3 51 -8 71 -12 46 -10 209 -3 224 9 7 6 14 7 17 4 13 -12 155 65 199
108 46 46 105 150 94 168 -3 5 -1 11 4 14 5 3 8 43 7 88 -4 140 -57 221 -191
291 -66 34 -108 51 -175 70 -272 80 -291 89 -296 156 -6 95 73 142 230 137 96
-3 184 -27 263 -71 l42 -23 49 98 49 97 -61 31 c-133 66 -200 84 -326 87 -52
1 -125 -4 -161 -11z"/>
<path d="M21210 5798 c-35 -11 -84 -34 -108 -50 -47 -32 -142 -126 -142 -140
0 -4 -3 -8 -8 -8 -4 0 -7 39 -7 88 1 48 -1 93 -3 100 -3 9 -38 12 -131 12
l-128 0 1 -842 1 -843 125 -1 c69 -1 127 2 130 7 3 4 5 145 5 313 0 168 2 306
5 306 3 0 13 -8 21 -17 22 -25 87 -83 94 -83 2 0 26 -13 52 -29 63 -38 149
-63 232 -65 236 -8 461 147 552 379 15 36 14 33 33 120 14 69 15 223 2 290
-24 112 -82 224 -158 305 -42 45 -160 122 -218 142 -110 39 -254 45 -350 16z
m160 -213 c68 -10 148 -54 204 -113 28 -28 49 -54 46 -56 -3 -2 2 -12 11 -22
31 -35 56 -144 54 -230 -3 -75 -30 -174 -59 -213 -137 -182 -367 -225 -533
-100 -60 45 -105 106 -130 175 -18 51 -25 218 -10 279 8 35 45 111 67 138 37
45 58 65 64 60 3 -4 6 -2 6 4 0 14 74 57 115 68 17 4 45 9 63 10 17 1 35 5 38
8 4 4 10 5 13 3 4 -3 26 -7 51 -11z"/>
<path d="M22630 5809 c-93 -15 -178 -38 -186 -50 -3 -5 -14 -9 -25 -9 -10 0
-19 -4 -19 -10 0 -5 -6 -10 -14 -10 -15 0 -131 -73 -140 -88 -3 -5 8 -24 24
-43 16 -19 29 -37 30 -41 0 -4 7 -16 15 -25 8 -10 20 -26 27 -35 12 -16 16
-16 38 -3 69 39 180 87 180 78 0 -3 7 1 17 8 21 18 204 23 253 8 58 -18 108
-59 131 -105 22 -47 36 -158 21 -168 -5 -3 -56 -5 -113 -5 -110 0 -111 0 -202
-4 -31 -1 -57 2 -57 6 0 5 -5 5 -11 1 -6 -3 -30 -8 -52 -10 -58 -5 -176 -34
-183 -45 -3 -5 -14 -9 -25 -9 -10 0 -19 -4 -19 -10 0 -5 -6 -10 -13 -10 -24 0
-110 -97 -130 -146 -24 -62 -30 -174 -13 -242 16 -58 51 -123 89 -164 32 -35
123 -93 162 -103 17 -4 35 -9 40 -11 90 -24 215 -24 305 2 71 20 154 67 205
115 l40 38 3 -77 3 -78 118 0 118 0 0 439 c0 544 -6 574 -123 690 -43 43 -135
90 -209 108 -58 14 -220 18 -285 8z m354 -759 c-1 -41 -4 -82 -6 -90 -31 -101
-118 -169 -243 -188 -132 -21 -265 22 -302 97 -24 50 -23 133 3 168 56 75 121
90 369 89 l180 -1 -1 -75z"/>
<path d="M24050 5805 c-178 -36 -327 -134 -425 -280 -47 -70 -92 -205 -94
-280 -3 -141 0 -176 25 -265 60 -213 276 -398 497 -427 100 -13 252 -2 317 24
8 3 20 7 27 9 26 5 146 70 170 92 13 12 27 22 31 22 4 1 24 17 44 38 l37 37
-77 83 -78 83 -24 -26 c-33 -35 -115 -88 -169 -109 -25 -10 -76 -19 -113 -20
-122 -5 -218 29 -299 107 -59 56 -82 90 -107 161 -29 81 -25 217 8 294 12 28
27 52 31 52 5 0 9 4 9 10 0 19 66 78 124 110 106 60 228 71 340 31 56 -20 143
-69 172 -99 17 -17 19 -15 89 73 22 27 50 61 63 75 l23 25 -38 33 c-83 71
-181 122 -278 144 -67 15 -236 17 -305 3z"/>
<path d="M25370 5809 c-76 -19 -178 -56 -190 -69 -3 -3 -25 -19 -50 -35 -88
-58 -201 -197 -215 -262 -2 -10 -8 -30 -14 -46 -20 -50 -24 -81 -27 -203 -4
-202 49 -349 171 -468 154 -149 337 -203 575 -170 94 14 131 24 178 48 18 9
32 13 32 10 0 -4 8 0 18 8 9 8 24 18 32 21 23 9 130 96 130 106 0 5 -16 26
-36 47 -20 22 -51 56 -69 77 l-33 38 -27 -23 c-15 -13 -33 -27 -39 -33 -44
-39 -140 -74 -226 -82 -73 -7 -70 -7 -125 1 -169 22 -295 123 -319 257 l-6 36
462 1 c255 0 474 1 487 1 l23 1 -5 148 c-5 164 -8 180 -42 265 -26 62 -57 109
-109 161 -37 37 -101 86 -113 86 -5 0 -14 5 -20 11 -13 13 -102 47 -142 55
-14 3 -29 8 -34 11 -15 9 -230 11 -267 2z m215 -224 c17 -3 35 -7 40 -8 49
-11 120 -65 175 -133 13 -18 36 -105 35 -139 l0 -30 -350 0 -350 0 1 42 c2 54
35 122 82 168 43 42 147 96 192 100 17 1 32 4 35 6 6 7 103 2 140 -6z"/>
<path d="M18910 4869 c-87 -51 -114 -163 -59 -244 76 -113 240 -101 298 21 32
67 21 134 -33 192 -48 54 -144 68 -206 31z"/>
</g>
</svg>
